<svg xmlns="http://www.w3.org/2000/svg" viewBox="0 0 725 436">
  <path d="M0.0195312 218.029L108.631 181.825L144.835 218.029L72.4272 290.437L0.0195312 218.029Z" />
  <path d="M72.4062 290.455L144.814 218.047L217.222 290.455L144.814 362.863L72.4062 290.455Z" />
  <path d="M72.4062 290.455L144.814 218.047L217.222 290.455L144.814 362.863L72.4062 290.455Z" />
  <path d="M144.832 362.855L217.24 290.448L289.647 362.855L217.24 435.263L144.832 362.855Z" />
  <path d="M289.633 218.043L362.04 145.635L434.448 218.043L362.04 290.451L289.633 218.043Z" />
  <path d="M217.23 145.631L289.638 73.2232L362.046 145.631L289.638 218.038L217.23 145.631Z" />
  <path d="M181.036 109.434L217.24 0.822754L289.647 73.2304L217.24 145.638L181.036 109.434Z" />
  <path d="M217.23 290.455L289.638 218.047L362.046 290.455L289.638 362.863L217.23 290.455Z" />
  <path d="M506.852 0.843647L543.055 109.455L506.852 145.659L434.444 73.2513L506.852 0.843647Z" />
  <path d="M434.457 73.2323L506.865 145.64L434.457 218.048L362.049 145.64L434.457 73.2323Z" />
  <path d="M434.457 73.2323L506.865 145.64L434.457 218.048L362.049 145.64L434.457 73.2323Z" />
  <path d="M362.031 145.631L434.439 218.038L362.031 290.446L289.624 218.038L362.031 145.631Z" />
  <path d="M506.855 290.443L579.263 362.851L506.855 435.259L434.448 362.851L506.855 290.443Z" />
  <path d="M579.258 218.045L651.665 290.452L579.258 362.86L506.85 290.452L579.258 218.045Z" />
  <path d="M615.476 181.835L724.087 218.038L651.68 290.446L579.272 218.038L615.476 181.835Z" />
  <path d="M434.457 218.045L506.865 290.452L434.457 362.86L362.049 290.452L434.457 218.045Z" />
</svg>
